<mxfile host="app.diagrams.net" agent="Mozilla/5.0 (X11; Linux x86_64) AppleWebKit/537.36 (KHTML, like Gecko) Chrome/133.0.0.0 Safari/537.36" version="26.0.15">
  <diagram name="Page-1" id="c37626ed-c26b-45fb-9056-f9ebc6bb27b6">
    <mxGraphModel dx="3857" dy="1643" grid="1" gridSize="10" guides="1" tooltips="1" connect="1" arrows="1" fold="1" page="1" pageScale="1" pageWidth="1100" pageHeight="850" background="none" math="0" shadow="0">
      <root>
        <mxCell id="0" />
        <mxCell id="1" parent="0" />
        <mxCell id="ph38IHF19PN5dUPyvORu-9" value="" style="ellipse;shape=doubleEllipse;whiteSpace=wrap;html=1;aspect=fixed;" vertex="1" parent="1">
          <mxGeometry x="420" y="780" width="700" height="700" as="geometry" />
        </mxCell>
        <mxCell id="9ca8y-296NDYEDixBZbv-4" value="" style="image;aspect=fixed;html=1;points=[];align=center;fontSize=12;image=img/lib/azure2/general/Folder_Blank.svg;" parent="1" vertex="1">
          <mxGeometry x="520" y="910" width="529.82" height="430" as="geometry" />
        </mxCell>
        <mxCell id="ph38IHF19PN5dUPyvORu-2" value="" style="image;sketch=0;aspect=fixed;html=1;points=[];align=center;fontSize=12;image=img/lib/mscae/Docker.svg;" vertex="1" parent="1">
          <mxGeometry x="850" y="1110" width="134.15" height="110" as="geometry" />
        </mxCell>
        <mxCell id="ph38IHF19PN5dUPyvORu-5" value="Project" style="text;strokeColor=none;fillColor=none;html=1;fontSize=24;fontStyle=1;verticalAlign=middle;align=center;" vertex="1" parent="1">
          <mxGeometry x="550" y="930" width="150" height="30" as="geometry" />
        </mxCell>
        <mxCell id="ph38IHF19PN5dUPyvORu-33" value="" style="group" vertex="1" connectable="0" parent="1">
          <mxGeometry x="550" y="1250" width="200" height="63" as="geometry" />
        </mxCell>
        <mxCell id="ph38IHF19PN5dUPyvORu-21" value="" style="group" vertex="1" connectable="0" parent="ph38IHF19PN5dUPyvORu-33">
          <mxGeometry x="57.142857142857146" y="2.486842105263158" width="142.85714285714286" height="58.026315789473685" as="geometry" />
        </mxCell>
        <mxCell id="ph38IHF19PN5dUPyvORu-22" value="" style="whiteSpace=wrap;html=1;shape=mxgraph.basic.document" vertex="1" parent="ph38IHF19PN5dUPyvORu-21">
          <mxGeometry width="125" height="58.026315789473685" as="geometry" />
        </mxCell>
        <mxCell id="ph38IHF19PN5dUPyvORu-23" value="&lt;span id=&quot;docs-internal-guid-ab8b9641-7fff-80b2-1bb9-0f51e72b042d&quot;&gt;&lt;span style=&quot;font-family: Arial, sans-serif; background-color: transparent; font-variant-numeric: normal; font-variant-east-asian: normal; font-variant-alternates: normal; font-variant-position: normal; font-variant-emoji: normal; vertical-align: baseline; white-space-collapse: preserve;&quot;&gt;&lt;font style=&quot;font-size: 12px;&quot;&gt;docker-compose.yml &lt;/font&gt;&lt;/span&gt;&lt;/span&gt;" style="text;html=1;align=center;verticalAlign=middle;whiteSpace=wrap;rounded=0;" vertex="1" parent="ph38IHF19PN5dUPyvORu-21">
          <mxGeometry x="-8.928571428571429" y="8.289473684210527" width="142.85714285714286" height="41.44736842105263" as="geometry" />
        </mxCell>
        <mxCell id="ph38IHF19PN5dUPyvORu-28" value="" style="shape=image;html=1;verticalAlign=top;verticalLabelPosition=bottom;labelBackgroundColor=#ffffff;imageAspect=0;aspect=fixed;image=https://cdn0.iconfinder.com/data/icons/social-media-2127/48/social_media_social_media_logo_docker-128.png" vertex="1" parent="ph38IHF19PN5dUPyvORu-33">
          <mxGeometry width="54.285714285714285" height="54.285714285714285" as="geometry" />
        </mxCell>
        <mxCell id="ph38IHF19PN5dUPyvORu-34" value="" style="group" vertex="1" connectable="0" parent="1">
          <mxGeometry x="550" y="1190" width="190" height="55" as="geometry" />
        </mxCell>
        <mxCell id="ph38IHF19PN5dUPyvORu-18" value="" style="group" vertex="1" connectable="0" parent="ph38IHF19PN5dUPyvORu-34">
          <mxGeometry x="45.787476280834916" width="144.2125237191651" height="55" as="geometry" />
        </mxCell>
        <mxCell id="ph38IHF19PN5dUPyvORu-19" value="" style="whiteSpace=wrap;html=1;shape=mxgraph.basic.document" vertex="1" parent="ph38IHF19PN5dUPyvORu-18">
          <mxGeometry width="126.18595825426945" height="55" as="geometry" />
        </mxCell>
        <mxCell id="ph38IHF19PN5dUPyvORu-20" value="&lt;div&gt;&lt;span style=&quot;background-color: transparent; color: light-dark(rgb(0, 0, 0), rgb(255, 255, 255));&quot;&gt;Dockerfile&lt;/span&gt;&lt;/div&gt;" style="text;html=1;align=center;verticalAlign=middle;whiteSpace=wrap;rounded=0;" vertex="1" parent="ph38IHF19PN5dUPyvORu-18">
          <mxGeometry x="-9.013282732447818" y="7.857142857142857" width="144.2125237191651" height="39.285714285714285" as="geometry" />
        </mxCell>
        <mxCell id="ph38IHF19PN5dUPyvORu-27" value="" style="shape=image;html=1;verticalAlign=top;verticalLabelPosition=bottom;labelBackgroundColor=#ffffff;imageAspect=0;aspect=fixed;image=https://cdn1.iconfinder.com/data/icons/unicons-line-vol-3/24/docker-128.png" vertex="1" parent="ph38IHF19PN5dUPyvORu-34">
          <mxGeometry y="5.107142857142857" width="45.787476280834916" height="45.787476280834916" as="geometry" />
        </mxCell>
        <mxCell id="ph38IHF19PN5dUPyvORu-35" value="" style="group" vertex="1" connectable="0" parent="1">
          <mxGeometry x="540" y="990" width="290" height="220" as="geometry" />
        </mxCell>
        <mxCell id="ph38IHF19PN5dUPyvORu-6" value="" style="image;aspect=fixed;html=1;points=[];align=center;fontSize=12;image=img/lib/azure2/general/Folder_Blank.svg;" vertex="1" parent="ph38IHF19PN5dUPyvORu-35">
          <mxGeometry x="34.55260335994281" y="31.428571428571434" width="197.60092165898618" height="160.36866359447006" as="geometry" />
        </mxCell>
        <mxCell id="ph38IHF19PN5dUPyvORu-13" value="api" style="text;html=1;align=center;verticalAlign=middle;whiteSpace=wrap;rounded=0;" vertex="1" parent="ph38IHF19PN5dUPyvORu-35">
          <mxGeometry width="164.1248659597283" height="94.2857142857143" as="geometry" />
        </mxCell>
        <mxCell id="ph38IHF19PN5dUPyvORu-14" value="" style="group" vertex="1" connectable="0" parent="ph38IHF19PN5dUPyvORu-35">
          <mxGeometry x="43.1907541999285" y="78.57142857142858" width="95.01965923984271" height="31.428571428571434" as="geometry" />
        </mxCell>
        <mxCell id="ph38IHF19PN5dUPyvORu-10" value="" style="whiteSpace=wrap;html=1;shape=mxgraph.basic.document" vertex="1" parent="ph38IHF19PN5dUPyvORu-14">
          <mxGeometry width="95.01965923984271" height="31.428571428571434" as="geometry" />
        </mxCell>
        <mxCell id="ph38IHF19PN5dUPyvORu-12" value="main.py" style="text;html=1;align=center;verticalAlign=middle;whiteSpace=wrap;rounded=0;" vertex="1" parent="ph38IHF19PN5dUPyvORu-14">
          <mxGeometry y="4.489795918367347" width="81.44542220557946" height="26.93877551020408" as="geometry" />
        </mxCell>
        <mxCell id="ph38IHF19PN5dUPyvORu-15" value="" style="group" vertex="1" connectable="0" parent="ph38IHF19PN5dUPyvORu-35">
          <mxGeometry x="164.1248659597283" y="72.67857142857143" width="103.65781007982841" height="43.214285714285715" as="geometry" />
        </mxCell>
        <mxCell id="ph38IHF19PN5dUPyvORu-16" value="" style="whiteSpace=wrap;html=1;shape=mxgraph.basic.document" vertex="1" parent="ph38IHF19PN5dUPyvORu-15">
          <mxGeometry width="90.70058381984985" height="43.214285714285715" as="geometry" />
        </mxCell>
        <mxCell id="ph38IHF19PN5dUPyvORu-17" value="&lt;div&gt;&lt;span style=&quot;background-color: transparent; color: light-dark(rgb(0, 0, 0), rgb(255, 255, 255));&quot;&gt;&lt;font style=&quot;font-size: 9px;&quot;&gt;Blockchain&lt;/font&gt;&lt;font style=&quot;font-size: 6px;&quot;&gt;.py&lt;/font&gt;&lt;/span&gt;&lt;/div&gt;" style="text;html=1;align=center;verticalAlign=middle;whiteSpace=wrap;rounded=0;" vertex="1" parent="ph38IHF19PN5dUPyvORu-15">
          <mxGeometry x="14.028356964136776" y="10.937142857142858" width="62.62659358989633" height="21.324285714285715" as="geometry" />
        </mxCell>
        <mxCell id="ph38IHF19PN5dUPyvORu-24" value="" style="group" vertex="1" connectable="0" parent="ph38IHF19PN5dUPyvORu-35">
          <mxGeometry x="43.1907541999285" y="115.89285714285715" width="103.65781007982841" height="43.214285714285715" as="geometry" />
        </mxCell>
        <mxCell id="ph38IHF19PN5dUPyvORu-25" value="" style="whiteSpace=wrap;html=1;shape=mxgraph.basic.document" vertex="1" parent="ph38IHF19PN5dUPyvORu-24">
          <mxGeometry width="90.70058381984985" height="43.214285714285715" as="geometry" />
        </mxCell>
        <mxCell id="ph38IHF19PN5dUPyvORu-26" value="&lt;font size=&quot;1&quot;&gt;security.py&lt;/font&gt;" style="text;html=1;align=center;verticalAlign=middle;whiteSpace=wrap;rounded=0;" vertex="1" parent="ph38IHF19PN5dUPyvORu-24">
          <mxGeometry x="14.028356964136776" y="10.937142857142858" width="62.62659358989633" height="21.324285714285715" as="geometry" />
        </mxCell>
        <mxCell id="ph38IHF19PN5dUPyvORu-29" value="" style="sketch=0;outlineConnect=0;fontColor=#232F3E;gradientColor=none;fillColor=#232F3D;strokeColor=none;dashed=0;verticalLabelPosition=bottom;verticalAlign=top;align=center;html=1;fontSize=12;fontStyle=0;aspect=fixed;pointerEvents=1;shape=mxgraph.aws4.source_code;" vertex="1" parent="ph38IHF19PN5dUPyvORu-35">
          <mxGeometry x="176.32193494578803" y="120.41857142857161" width="21.235483870967744" height="29.066820276497694" as="geometry" />
        </mxCell>
        <mxCell id="ph38IHF19PN5dUPyvORu-36" value="" style="ellipse;shape=doubleEllipse;whiteSpace=wrap;html=1;aspect=fixed;" vertex="1" parent="1">
          <mxGeometry x="1300" y="390" width="700" height="700" as="geometry" />
        </mxCell>
        <mxCell id="ph38IHF19PN5dUPyvORu-37" value="" style="image;aspect=fixed;html=1;points=[];align=center;fontSize=12;image=img/lib/azure2/general/Folder_Blank.svg;" vertex="1" parent="1">
          <mxGeometry x="1400" y="520" width="529.82" height="430" as="geometry" />
        </mxCell>
        <mxCell id="ph38IHF19PN5dUPyvORu-38" value="" style="image;sketch=0;aspect=fixed;html=1;points=[];align=center;fontSize=12;image=img/lib/mscae/Docker.svg;" vertex="1" parent="1">
          <mxGeometry x="1730" y="720" width="134.15" height="110" as="geometry" />
        </mxCell>
        <mxCell id="ph38IHF19PN5dUPyvORu-39" value="Project" style="text;strokeColor=none;fillColor=none;html=1;fontSize=24;fontStyle=1;verticalAlign=middle;align=center;" vertex="1" parent="1">
          <mxGeometry x="1430" y="540" width="150" height="30" as="geometry" />
        </mxCell>
        <mxCell id="ph38IHF19PN5dUPyvORu-40" value="" style="group" vertex="1" connectable="0" parent="1">
          <mxGeometry x="1430" y="860" width="200" height="63" as="geometry" />
        </mxCell>
        <mxCell id="ph38IHF19PN5dUPyvORu-41" value="" style="group" vertex="1" connectable="0" parent="ph38IHF19PN5dUPyvORu-40">
          <mxGeometry x="57.142857142857146" y="2.486842105263158" width="142.85714285714286" height="58.026315789473685" as="geometry" />
        </mxCell>
        <mxCell id="ph38IHF19PN5dUPyvORu-42" value="" style="whiteSpace=wrap;html=1;shape=mxgraph.basic.document" vertex="1" parent="ph38IHF19PN5dUPyvORu-41">
          <mxGeometry width="125" height="58.026315789473685" as="geometry" />
        </mxCell>
        <mxCell id="ph38IHF19PN5dUPyvORu-43" value="&lt;span id=&quot;docs-internal-guid-ab8b9641-7fff-80b2-1bb9-0f51e72b042d&quot;&gt;&lt;span style=&quot;font-family: Arial, sans-serif; background-color: transparent; font-variant-numeric: normal; font-variant-east-asian: normal; font-variant-alternates: normal; font-variant-position: normal; font-variant-emoji: normal; vertical-align: baseline; white-space-collapse: preserve;&quot;&gt;&lt;font style=&quot;font-size: 12px;&quot;&gt;docker-compose.yml &lt;/font&gt;&lt;/span&gt;&lt;/span&gt;" style="text;html=1;align=center;verticalAlign=middle;whiteSpace=wrap;rounded=0;" vertex="1" parent="ph38IHF19PN5dUPyvORu-41">
          <mxGeometry x="-8.928571428571429" y="8.289473684210527" width="142.85714285714286" height="41.44736842105263" as="geometry" />
        </mxCell>
        <mxCell id="ph38IHF19PN5dUPyvORu-44" value="" style="shape=image;html=1;verticalAlign=top;verticalLabelPosition=bottom;labelBackgroundColor=#ffffff;imageAspect=0;aspect=fixed;image=https://cdn0.iconfinder.com/data/icons/social-media-2127/48/social_media_social_media_logo_docker-128.png" vertex="1" parent="ph38IHF19PN5dUPyvORu-40">
          <mxGeometry width="54.285714285714285" height="54.285714285714285" as="geometry" />
        </mxCell>
        <mxCell id="ph38IHF19PN5dUPyvORu-45" value="" style="group" vertex="1" connectable="0" parent="1">
          <mxGeometry x="1430" y="800" width="190" height="55" as="geometry" />
        </mxCell>
        <mxCell id="ph38IHF19PN5dUPyvORu-46" value="" style="group" vertex="1" connectable="0" parent="ph38IHF19PN5dUPyvORu-45">
          <mxGeometry x="45.787476280834916" width="144.2125237191651" height="55" as="geometry" />
        </mxCell>
        <mxCell id="ph38IHF19PN5dUPyvORu-47" value="" style="whiteSpace=wrap;html=1;shape=mxgraph.basic.document" vertex="1" parent="ph38IHF19PN5dUPyvORu-46">
          <mxGeometry width="126.18595825426945" height="55" as="geometry" />
        </mxCell>
        <mxCell id="ph38IHF19PN5dUPyvORu-48" value="&lt;div&gt;&lt;span style=&quot;background-color: transparent; color: light-dark(rgb(0, 0, 0), rgb(255, 255, 255));&quot;&gt;Dockerfile&lt;/span&gt;&lt;/div&gt;" style="text;html=1;align=center;verticalAlign=middle;whiteSpace=wrap;rounded=0;" vertex="1" parent="ph38IHF19PN5dUPyvORu-46">
          <mxGeometry x="-9.013282732447818" y="7.857142857142857" width="144.2125237191651" height="39.285714285714285" as="geometry" />
        </mxCell>
        <mxCell id="ph38IHF19PN5dUPyvORu-49" value="" style="shape=image;html=1;verticalAlign=top;verticalLabelPosition=bottom;labelBackgroundColor=#ffffff;imageAspect=0;aspect=fixed;image=https://cdn1.iconfinder.com/data/icons/unicons-line-vol-3/24/docker-128.png" vertex="1" parent="ph38IHF19PN5dUPyvORu-45">
          <mxGeometry y="5.107142857142857" width="45.787476280834916" height="45.787476280834916" as="geometry" />
        </mxCell>
        <mxCell id="ph38IHF19PN5dUPyvORu-50" value="" style="group" vertex="1" connectable="0" parent="1">
          <mxGeometry x="1420" y="600" width="290" height="220" as="geometry" />
        </mxCell>
        <mxCell id="ph38IHF19PN5dUPyvORu-51" value="" style="image;aspect=fixed;html=1;points=[];align=center;fontSize=12;image=img/lib/azure2/general/Folder_Blank.svg;" vertex="1" parent="ph38IHF19PN5dUPyvORu-50">
          <mxGeometry x="34.55260335994281" y="31.428571428571434" width="197.60092165898618" height="160.36866359447006" as="geometry" />
        </mxCell>
        <mxCell id="ph38IHF19PN5dUPyvORu-52" value="api" style="text;html=1;align=center;verticalAlign=middle;whiteSpace=wrap;rounded=0;" vertex="1" parent="ph38IHF19PN5dUPyvORu-50">
          <mxGeometry width="164.1248659597283" height="94.2857142857143" as="geometry" />
        </mxCell>
        <mxCell id="ph38IHF19PN5dUPyvORu-53" value="" style="group" vertex="1" connectable="0" parent="ph38IHF19PN5dUPyvORu-50">
          <mxGeometry x="43.1907541999285" y="78.57142857142858" width="95.01965923984271" height="31.428571428571434" as="geometry" />
        </mxCell>
        <mxCell id="ph38IHF19PN5dUPyvORu-54" value="" style="whiteSpace=wrap;html=1;shape=mxgraph.basic.document" vertex="1" parent="ph38IHF19PN5dUPyvORu-53">
          <mxGeometry width="95.01965923984271" height="31.428571428571434" as="geometry" />
        </mxCell>
        <mxCell id="ph38IHF19PN5dUPyvORu-55" value="main.py" style="text;html=1;align=center;verticalAlign=middle;whiteSpace=wrap;rounded=0;" vertex="1" parent="ph38IHF19PN5dUPyvORu-53">
          <mxGeometry y="4.489795918367347" width="81.44542220557946" height="26.93877551020408" as="geometry" />
        </mxCell>
        <mxCell id="ph38IHF19PN5dUPyvORu-56" value="" style="group" vertex="1" connectable="0" parent="ph38IHF19PN5dUPyvORu-50">
          <mxGeometry x="164.1248659597283" y="72.67857142857143" width="103.65781007982841" height="43.214285714285715" as="geometry" />
        </mxCell>
        <mxCell id="ph38IHF19PN5dUPyvORu-57" value="" style="whiteSpace=wrap;html=1;shape=mxgraph.basic.document" vertex="1" parent="ph38IHF19PN5dUPyvORu-56">
          <mxGeometry width="90.70058381984985" height="43.214285714285715" as="geometry" />
        </mxCell>
        <mxCell id="ph38IHF19PN5dUPyvORu-58" value="&lt;div&gt;&lt;span style=&quot;background-color: transparent; color: light-dark(rgb(0, 0, 0), rgb(255, 255, 255));&quot;&gt;&lt;font style=&quot;font-size: 9px;&quot;&gt;Blockchain&lt;/font&gt;&lt;font style=&quot;font-size: 6px;&quot;&gt;.py&lt;/font&gt;&lt;/span&gt;&lt;/div&gt;" style="text;html=1;align=center;verticalAlign=middle;whiteSpace=wrap;rounded=0;" vertex="1" parent="ph38IHF19PN5dUPyvORu-56">
          <mxGeometry x="14.028356964136776" y="10.937142857142858" width="62.62659358989633" height="21.324285714285715" as="geometry" />
        </mxCell>
        <mxCell id="ph38IHF19PN5dUPyvORu-59" value="" style="group" vertex="1" connectable="0" parent="ph38IHF19PN5dUPyvORu-50">
          <mxGeometry x="43.1907541999285" y="115.89285714285715" width="103.65781007982841" height="43.214285714285715" as="geometry" />
        </mxCell>
        <mxCell id="ph38IHF19PN5dUPyvORu-60" value="" style="whiteSpace=wrap;html=1;shape=mxgraph.basic.document" vertex="1" parent="ph38IHF19PN5dUPyvORu-59">
          <mxGeometry width="90.70058381984985" height="43.214285714285715" as="geometry" />
        </mxCell>
        <mxCell id="ph38IHF19PN5dUPyvORu-61" value="&lt;font size=&quot;1&quot;&gt;security.py&lt;/font&gt;" style="text;html=1;align=center;verticalAlign=middle;whiteSpace=wrap;rounded=0;" vertex="1" parent="ph38IHF19PN5dUPyvORu-59">
          <mxGeometry x="14.028356964136776" y="10.937142857142858" width="62.62659358989633" height="21.324285714285715" as="geometry" />
        </mxCell>
        <mxCell id="ph38IHF19PN5dUPyvORu-62" value="" style="sketch=0;outlineConnect=0;fontColor=#232F3E;gradientColor=none;fillColor=#232F3D;strokeColor=none;dashed=0;verticalLabelPosition=bottom;verticalAlign=top;align=center;html=1;fontSize=12;fontStyle=0;aspect=fixed;pointerEvents=1;shape=mxgraph.aws4.source_code;" vertex="1" parent="ph38IHF19PN5dUPyvORu-50">
          <mxGeometry x="176.32193494578803" y="120.41857142857161" width="21.235483870967744" height="29.066820276497694" as="geometry" />
        </mxCell>
        <mxCell id="ph38IHF19PN5dUPyvORu-63" value="" style="ellipse;shape=doubleEllipse;whiteSpace=wrap;html=1;aspect=fixed;" vertex="1" parent="1">
          <mxGeometry x="1314.91" y="1230" width="700" height="700" as="geometry" />
        </mxCell>
        <mxCell id="ph38IHF19PN5dUPyvORu-64" value="" style="image;aspect=fixed;html=1;points=[];align=center;fontSize=12;image=img/lib/azure2/general/Folder_Blank.svg;" vertex="1" parent="1">
          <mxGeometry x="1414.91" y="1360" width="529.82" height="430" as="geometry" />
        </mxCell>
        <mxCell id="ph38IHF19PN5dUPyvORu-65" value="" style="image;sketch=0;aspect=fixed;html=1;points=[];align=center;fontSize=12;image=img/lib/mscae/Docker.svg;" vertex="1" parent="1">
          <mxGeometry x="1744.91" y="1560" width="134.15" height="110" as="geometry" />
        </mxCell>
        <mxCell id="ph38IHF19PN5dUPyvORu-66" value="Project" style="text;strokeColor=none;fillColor=none;html=1;fontSize=24;fontStyle=1;verticalAlign=middle;align=center;" vertex="1" parent="1">
          <mxGeometry x="1444.91" y="1380" width="150" height="30" as="geometry" />
        </mxCell>
        <mxCell id="ph38IHF19PN5dUPyvORu-67" value="" style="group" vertex="1" connectable="0" parent="1">
          <mxGeometry x="1444.91" y="1700" width="200" height="63" as="geometry" />
        </mxCell>
        <mxCell id="ph38IHF19PN5dUPyvORu-68" value="" style="group" vertex="1" connectable="0" parent="ph38IHF19PN5dUPyvORu-67">
          <mxGeometry x="57.142857142857146" y="2.486842105263158" width="142.85714285714286" height="58.026315789473685" as="geometry" />
        </mxCell>
        <mxCell id="ph38IHF19PN5dUPyvORu-69" value="" style="whiteSpace=wrap;html=1;shape=mxgraph.basic.document" vertex="1" parent="ph38IHF19PN5dUPyvORu-68">
          <mxGeometry width="125" height="58.026315789473685" as="geometry" />
        </mxCell>
        <mxCell id="ph38IHF19PN5dUPyvORu-70" value="&lt;span id=&quot;docs-internal-guid-ab8b9641-7fff-80b2-1bb9-0f51e72b042d&quot;&gt;&lt;span style=&quot;font-family: Arial, sans-serif; background-color: transparent; font-variant-numeric: normal; font-variant-east-asian: normal; font-variant-alternates: normal; font-variant-position: normal; font-variant-emoji: normal; vertical-align: baseline; white-space-collapse: preserve;&quot;&gt;&lt;font style=&quot;font-size: 12px;&quot;&gt;docker-compose.yml &lt;/font&gt;&lt;/span&gt;&lt;/span&gt;" style="text;html=1;align=center;verticalAlign=middle;whiteSpace=wrap;rounded=0;" vertex="1" parent="ph38IHF19PN5dUPyvORu-68">
          <mxGeometry x="-8.928571428571429" y="8.289473684210527" width="142.85714285714286" height="41.44736842105263" as="geometry" />
        </mxCell>
        <mxCell id="ph38IHF19PN5dUPyvORu-71" value="" style="shape=image;html=1;verticalAlign=top;verticalLabelPosition=bottom;labelBackgroundColor=#ffffff;imageAspect=0;aspect=fixed;image=https://cdn0.iconfinder.com/data/icons/social-media-2127/48/social_media_social_media_logo_docker-128.png" vertex="1" parent="ph38IHF19PN5dUPyvORu-67">
          <mxGeometry width="54.285714285714285" height="54.285714285714285" as="geometry" />
        </mxCell>
        <mxCell id="ph38IHF19PN5dUPyvORu-72" value="" style="group" vertex="1" connectable="0" parent="1">
          <mxGeometry x="1444.91" y="1640" width="190" height="55" as="geometry" />
        </mxCell>
        <mxCell id="ph38IHF19PN5dUPyvORu-73" value="" style="group" vertex="1" connectable="0" parent="ph38IHF19PN5dUPyvORu-72">
          <mxGeometry x="45.787476280834916" width="144.2125237191651" height="55" as="geometry" />
        </mxCell>
        <mxCell id="ph38IHF19PN5dUPyvORu-74" value="" style="whiteSpace=wrap;html=1;shape=mxgraph.basic.document" vertex="1" parent="ph38IHF19PN5dUPyvORu-73">
          <mxGeometry width="126.18595825426945" height="55" as="geometry" />
        </mxCell>
        <mxCell id="ph38IHF19PN5dUPyvORu-75" value="&lt;div&gt;&lt;span style=&quot;background-color: transparent; color: light-dark(rgb(0, 0, 0), rgb(255, 255, 255));&quot;&gt;Dockerfile&lt;/span&gt;&lt;/div&gt;" style="text;html=1;align=center;verticalAlign=middle;whiteSpace=wrap;rounded=0;" vertex="1" parent="ph38IHF19PN5dUPyvORu-73">
          <mxGeometry x="-9.013282732447818" y="7.857142857142857" width="144.2125237191651" height="39.285714285714285" as="geometry" />
        </mxCell>
        <mxCell id="ph38IHF19PN5dUPyvORu-76" value="" style="shape=image;html=1;verticalAlign=top;verticalLabelPosition=bottom;labelBackgroundColor=#ffffff;imageAspect=0;aspect=fixed;image=https://cdn1.iconfinder.com/data/icons/unicons-line-vol-3/24/docker-128.png" vertex="1" parent="ph38IHF19PN5dUPyvORu-72">
          <mxGeometry y="5.107142857142857" width="45.787476280834916" height="45.787476280834916" as="geometry" />
        </mxCell>
        <mxCell id="ph38IHF19PN5dUPyvORu-77" value="" style="group" vertex="1" connectable="0" parent="1">
          <mxGeometry x="1434.91" y="1440" width="290" height="220" as="geometry" />
        </mxCell>
        <mxCell id="ph38IHF19PN5dUPyvORu-78" value="" style="image;aspect=fixed;html=1;points=[];align=center;fontSize=12;image=img/lib/azure2/general/Folder_Blank.svg;" vertex="1" parent="ph38IHF19PN5dUPyvORu-77">
          <mxGeometry x="34.55260335994281" y="31.428571428571434" width="197.60092165898618" height="160.36866359447006" as="geometry" />
        </mxCell>
        <mxCell id="ph38IHF19PN5dUPyvORu-79" value="api" style="text;html=1;align=center;verticalAlign=middle;whiteSpace=wrap;rounded=0;" vertex="1" parent="ph38IHF19PN5dUPyvORu-77">
          <mxGeometry width="164.1248659597283" height="94.2857142857143" as="geometry" />
        </mxCell>
        <mxCell id="ph38IHF19PN5dUPyvORu-80" value="" style="group" vertex="1" connectable="0" parent="ph38IHF19PN5dUPyvORu-77">
          <mxGeometry x="43.1907541999285" y="78.57142857142858" width="95.01965923984271" height="31.428571428571434" as="geometry" />
        </mxCell>
        <mxCell id="ph38IHF19PN5dUPyvORu-81" value="" style="whiteSpace=wrap;html=1;shape=mxgraph.basic.document" vertex="1" parent="ph38IHF19PN5dUPyvORu-80">
          <mxGeometry width="95.01965923984271" height="31.428571428571434" as="geometry" />
        </mxCell>
        <mxCell id="ph38IHF19PN5dUPyvORu-82" value="main.py" style="text;html=1;align=center;verticalAlign=middle;whiteSpace=wrap;rounded=0;" vertex="1" parent="ph38IHF19PN5dUPyvORu-80">
          <mxGeometry y="4.489795918367347" width="81.44542220557946" height="26.93877551020408" as="geometry" />
        </mxCell>
        <mxCell id="ph38IHF19PN5dUPyvORu-83" value="" style="group" vertex="1" connectable="0" parent="ph38IHF19PN5dUPyvORu-77">
          <mxGeometry x="164.1248659597283" y="72.67857142857143" width="103.65781007982841" height="43.214285714285715" as="geometry" />
        </mxCell>
        <mxCell id="ph38IHF19PN5dUPyvORu-84" value="" style="whiteSpace=wrap;html=1;shape=mxgraph.basic.document" vertex="1" parent="ph38IHF19PN5dUPyvORu-83">
          <mxGeometry width="90.70058381984985" height="43.214285714285715" as="geometry" />
        </mxCell>
        <mxCell id="ph38IHF19PN5dUPyvORu-85" value="&lt;div&gt;&lt;span style=&quot;background-color: transparent; color: light-dark(rgb(0, 0, 0), rgb(255, 255, 255));&quot;&gt;&lt;font style=&quot;font-size: 9px;&quot;&gt;Blockchain&lt;/font&gt;&lt;font style=&quot;font-size: 6px;&quot;&gt;.py&lt;/font&gt;&lt;/span&gt;&lt;/div&gt;" style="text;html=1;align=center;verticalAlign=middle;whiteSpace=wrap;rounded=0;" vertex="1" parent="ph38IHF19PN5dUPyvORu-83">
          <mxGeometry x="14.028356964136776" y="10.937142857142858" width="62.62659358989633" height="21.324285714285715" as="geometry" />
        </mxCell>
        <mxCell id="ph38IHF19PN5dUPyvORu-86" value="" style="group" vertex="1" connectable="0" parent="ph38IHF19PN5dUPyvORu-77">
          <mxGeometry x="43.1907541999285" y="115.89285714285715" width="103.65781007982841" height="43.214285714285715" as="geometry" />
        </mxCell>
        <mxCell id="ph38IHF19PN5dUPyvORu-87" value="" style="whiteSpace=wrap;html=1;shape=mxgraph.basic.document" vertex="1" parent="ph38IHF19PN5dUPyvORu-86">
          <mxGeometry width="90.70058381984985" height="43.214285714285715" as="geometry" />
        </mxCell>
        <mxCell id="ph38IHF19PN5dUPyvORu-88" value="&lt;font size=&quot;1&quot;&gt;security.py&lt;/font&gt;" style="text;html=1;align=center;verticalAlign=middle;whiteSpace=wrap;rounded=0;" vertex="1" parent="ph38IHF19PN5dUPyvORu-86">
          <mxGeometry x="14.028356964136776" y="10.937142857142858" width="62.62659358989633" height="21.324285714285715" as="geometry" />
        </mxCell>
        <mxCell id="ph38IHF19PN5dUPyvORu-89" value="" style="sketch=0;outlineConnect=0;fontColor=#232F3E;gradientColor=none;fillColor=#232F3D;strokeColor=none;dashed=0;verticalLabelPosition=bottom;verticalAlign=top;align=center;html=1;fontSize=12;fontStyle=0;aspect=fixed;pointerEvents=1;shape=mxgraph.aws4.source_code;" vertex="1" parent="ph38IHF19PN5dUPyvORu-77">
          <mxGeometry x="176.32193494578803" y="120.41857142857161" width="21.235483870967744" height="29.066820276497694" as="geometry" />
        </mxCell>
        <mxCell id="ph38IHF19PN5dUPyvORu-90" value="" style="endArrow=classic;startArrow=classic;html=1;rounded=0;entryX=0.027;entryY=0.658;entryDx=0;entryDy=0;entryPerimeter=0;exitX=0.971;exitY=0.314;exitDx=0;exitDy=0;exitPerimeter=0;" edge="1" parent="1" source="ph38IHF19PN5dUPyvORu-9" target="ph38IHF19PN5dUPyvORu-36">
          <mxGeometry width="50" height="50" relative="1" as="geometry">
            <mxPoint x="1690" y="1220" as="sourcePoint" />
            <mxPoint x="1740" y="1170" as="targetPoint" />
          </mxGeometry>
        </mxCell>
        <mxCell id="ph38IHF19PN5dUPyvORu-91" value="" style="endArrow=classic;startArrow=classic;html=1;rounded=0;entryX=0.131;entryY=0.166;entryDx=0;entryDy=0;entryPerimeter=0;" edge="1" parent="1" source="ph38IHF19PN5dUPyvORu-9" target="ph38IHF19PN5dUPyvORu-63">
          <mxGeometry width="50" height="50" relative="1" as="geometry">
            <mxPoint x="1195.91" y="1275" as="sourcePoint" />
            <mxPoint x="1414.91" y="1126" as="targetPoint" />
          </mxGeometry>
        </mxCell>
        <mxCell id="ph38IHF19PN5dUPyvORu-92" value="" style="endArrow=classic;startArrow=classic;html=1;rounded=0;entryX=0.44;entryY=0.007;entryDx=0;entryDy=0;entryPerimeter=0;" edge="1" parent="1" source="ph38IHF19PN5dUPyvORu-36" target="ph38IHF19PN5dUPyvORu-63">
          <mxGeometry width="50" height="50" relative="1" as="geometry">
            <mxPoint x="1112" y="1252" as="sourcePoint" />
            <mxPoint x="1417" y="1356" as="targetPoint" />
          </mxGeometry>
        </mxCell>
      </root>
    </mxGraphModel>
  </diagram>
</mxfile>
